<svg width="38" height="46" viewBox="0 0 38 46" fill="none" xmlns="http://www.w3.org/2000/svg">
<path fill-rule="evenodd" clip-rule="evenodd" d="M7.13611 0.141546C6.30495 0.430285 5.69525 1.06279 5.44424 1.89661C5.37154 2.13822 5.31722 2.68925 5.31722 3.18533V4.0519L3.65296 4.08102C1.74984 4.1143 1.4619 4.19312 0.790423 4.8646C0.0568148 5.5982 -0.122038 6.46602 0.0738567 8.34242C0.410881 11.5714 1.51258 14.0673 3.37727 15.8263C4.34778 16.7418 5.5322 17.4511 6.65112 17.787C7.01309 17.8957 7.07806 17.9587 7.30395 18.4204C8.03241 19.9092 9.26823 21.7188 10.4651 23.0494C11.1457 23.806 12.4443 24.9641 13.4388 25.7016C14.3377 26.3682 14.5715 26.6077 14.8291 27.1258C15.0309 27.5318 15.0372 27.6167 15.0643 30.3005L15.0921 33.0579L14.4266 33.3869C13.3691 33.9096 12.7137 34.7817 12.4977 35.9536L12.3912 36.5318L11.6279 36.5701C10.7099 36.6163 10.1971 36.8204 9.6665 37.351C8.9218 38.0957 8.91558 38.13 8.88567 41.672L8.85922 44.7947L9.1224 45.0893L9.38566 45.3839L18.5769 45.4073L27.7682 45.4307L28.0594 45.1704L28.3506 44.9102V41.7298C28.3506 38.6629 28.3438 38.5346 28.1599 38.1367C28.055 37.9097 27.8013 37.5562 27.5962 37.351C27.0665 36.8214 26.5524 36.6163 25.6396 36.5704L24.8812 36.5322L24.7707 35.9488C24.5453 34.7608 23.8414 33.8584 22.7308 33.3334L22.1705 33.0685L22.1983 30.3057C22.2254 27.6165 22.2317 27.5319 22.4336 27.1258C22.6911 26.6078 22.9248 26.3683 23.8238 25.7015C26.4049 23.7869 28.431 21.4123 29.8321 18.6595C30.1946 17.9474 30.2355 17.9019 30.614 17.7873C31.7459 17.4447 32.9939 16.6933 33.9267 15.7928C35.7766 14.0071 36.8545 11.5454 37.1888 8.34242C37.3847 6.46602 37.2059 5.5982 36.4723 4.8646C35.8015 4.19383 35.5118 4.1143 33.6189 4.0811L31.9637 4.05217L31.929 3.01598C31.9019 2.20399 31.8539 1.89058 31.707 1.56722C31.4684 1.04185 30.8907 0.462772 30.361 0.217881L29.9483 0.0271338L18.7645 0.00716266C8.33757 -0.0114771 7.55053 -0.0024235 7.13611 0.141546ZM29.8797 2.04857L30.1259 2.29479L30.1235 6.97479C30.1208 12.1131 30.1045 12.3224 29.5418 14.4419C29.0774 16.1908 28.1735 18.2109 27.2141 19.6433C26.1037 21.3012 24.4406 23.0252 22.7109 24.3115C21.6331 25.113 21.2644 25.5033 20.9003 26.2282C20.4392 27.1463 20.4066 27.4575 20.4066 30.9331V34.1528L20.6506 34.4215C20.8391 34.6289 21.0163 34.7116 21.4273 34.7843C22.2883 34.9367 22.8937 35.4793 23.0285 36.2193L23.0892 36.5522H18.6313H14.1735L14.2341 36.2193C14.3686 35.4812 15.0117 34.8971 15.7916 34.8048C16.1291 34.7647 16.3415 34.6792 16.5376 34.504L16.8117 34.2591L16.8371 31.0044C16.8646 27.4718 16.8346 27.1684 16.3639 26.2314C15.9982 25.5031 15.6307 25.1138 14.5518 24.3115C12.8211 23.0244 11.1532 21.2952 10.0494 19.6433C9.10713 18.2331 8.17452 16.1515 7.72317 14.4508C7.15794 12.3212 7.14188 12.1153 7.13921 6.98216C7.13691 2.43264 7.14152 2.3042 7.31434 2.11204C7.41198 2.00339 7.57175 1.88161 7.66938 1.84132C7.76702 1.80111 12.7489 1.77581 18.7402 1.78522L29.6337 1.80235L29.8797 2.04857ZM5.31722 8.22206C5.31722 11.4018 5.51347 13.2541 6.03672 15.014C6.13613 15.3482 6.19995 15.6391 6.17856 15.6605C6.09388 15.7452 4.79611 14.7895 4.32452 14.2951C2.76721 12.6624 1.85866 10.1354 1.82315 7.33809C1.81259 6.50951 1.83283 6.37007 1.98869 6.19592C2.269 5.88268 2.4356 5.85259 3.91924 5.84656L5.31722 5.84096V8.22206ZM35.2056 6.13245C35.4455 6.37344 35.4512 6.40282 35.4395 7.33072C35.4043 10.1352 34.4972 12.6605 32.9382 14.2951C32.4666 14.7895 31.1688 15.7452 31.0841 15.6605C31.0627 15.6391 31.1265 15.3482 31.226 15.014C31.7495 13.2531 31.9455 11.4019 31.9455 8.2162V5.82925L33.4526 5.8573L34.9598 5.88534L35.2056 6.13245ZM26.3294 38.6177L26.5754 38.8637L26.6017 41.2584L26.628 43.6531H18.6313H10.6347L10.661 41.2657C10.6857 39.0235 10.6981 38.8663 10.8648 38.6811C10.9624 38.5727 11.1222 38.451 11.2198 38.4105C11.3175 38.3701 14.7016 38.3449 18.7403 38.3544L26.0832 38.3718L26.3294 38.6177ZM14.7603 40.1896C14.4809 40.3025 14.1933 40.7139 14.1933 41.0008C14.1933 41.1548 14.2946 41.3671 14.4521 41.5436L14.711 41.8335L16.7979 41.8602L18.8848 41.8869L19.1777 41.6251C19.421 41.4077 19.4706 41.3004 19.4706 40.9902C19.4706 40.6813 19.4209 40.5727 19.1826 40.3599L18.8948 40.1026L16.9213 40.1082C15.8358 40.1113 14.8634 40.148 14.7603 40.1896ZM21.8612 40.1896C21.5817 40.3025 21.2942 40.7139 21.2942 41.0008C21.2942 41.3561 21.7021 41.7825 22.103 41.8461C22.3733 41.8891 22.4706 41.8552 22.7223 41.6303C22.9717 41.4075 23.021 41.3019 23.021 40.9902C23.021 40.6813 22.9713 40.5727 22.7331 40.3599C22.4415 40.0993 22.201 40.0523 21.8612 40.1896Z" fill="white"/>
<path fill-rule="evenodd" clip-rule="evenodd" d="M18.4622 5.37288C17.9953 5.50336 17.8943 5.6484 17.0263 7.43533C16.5399 8.43664 16.1283 9.26948 16.1116 9.28617C16.095 9.30286 15.269 9.43191 14.2761 9.57304C13.2831 9.71417 12.3254 9.8711 12.1477 9.92178C11.7539 10.0342 11.5388 10.339 11.5388 10.7854C11.5388 11.101 11.6265 11.2078 13.0409 12.6159L14.5431 14.1113L14.2011 16.1184C13.896 17.9088 13.872 18.1565 13.9785 18.4113C14.0442 18.5684 14.1785 18.7401 14.2771 18.7929C14.7042 19.0214 15.0514 18.909 16.8411 17.9624L18.5925 17.036L20.3792 17.9624C22.3487 18.9835 22.6452 19.0631 23.0338 18.6745C23.1516 18.5566 23.271 18.3669 23.299 18.2529C23.3271 18.1388 23.197 17.1583 23.01 16.0738L22.67 14.1021L24.1531 12.6209C25.1034 11.6718 25.652 11.0569 25.6803 10.9091C25.749 10.5499 25.5241 10.1207 25.1907 9.97486C25.0293 9.9043 24.1584 9.74275 23.2552 9.61591C22.3521 9.48916 21.5018 9.36321 21.3655 9.33614C21.1446 9.2922 21.0186 9.08823 20.1927 7.43799C19.6838 6.42106 19.2247 5.56274 19.1726 5.53043C19.0009 5.42436 18.5978 5.33498 18.4622 5.37288ZM19.2385 9.54914C19.5568 10.1674 19.915 10.7408 20.0374 10.8283C20.2187 10.9577 22.2386 11.3343 22.816 11.3464C22.8743 11.3476 22.4527 11.8019 21.8792 12.3559C21.2815 12.9333 20.9914 13.1877 20.8865 13.5036C20.7794 13.826 20.8652 14.2126 21.0137 15.0721C21.1108 15.6335 21.1904 16.1618 21.1906 16.2461C21.1912 16.368 20.9481 16.2722 20.0076 15.7801C19.3566 15.4396 18.7125 15.1609 18.5763 15.1609C18.44 15.1609 17.7944 15.4431 17.1415 15.788C16.4885 16.1331 15.9544 16.3738 15.9544 16.3231C15.9544 16.2724 16.0533 15.6671 16.1742 14.9779C16.3663 13.8823 16.379 13.6896 16.275 13.4443C16.2096 13.29 15.7489 12.77 15.2512 12.2886C14.7535 11.8074 14.3615 11.3986 14.3799 11.3802C14.3982 11.3618 14.9896 11.2633 15.6942 11.1612C16.3987 11.0592 17.0609 10.9207 17.1656 10.8533C17.2703 10.7859 17.6208 10.1841 17.9444 9.51594C18.268 8.84775 18.5617 8.32974 18.5971 8.36471C18.6326 8.39977 18.9212 8.93278 19.2385 9.54914Z" fill="#DB3138"/>
<circle cx="22.2791" cy="41.0789" r="0.976368" fill="#DB3138"/>
</svg>
